<?xml version="1.0" encoding="UTF-8" standalone="no"?>
<!DOCTYPE svg PUBLIC "-//W3C//DTD SVG 1.1//EN"
 "http://www.w3.org/Graphics/SVG/1.1/DTD/svg11.dtd">
<!-- Generated by graphviz version 2.40.1 (20161225.0304)
 -->
<!-- Title: %3 Pages: 1 -->
<svg width="118pt" height="127pt"
 viewBox="0.00 0.00 118.00 127.00" xmlns="http://www.w3.org/2000/svg" xmlns:xlink="http://www.w3.org/1999/xlink">
<g id="graph0" class="graph" transform="scale(1 1) rotate(0) translate(4 123)">
<title>%3</title>
<polygon fill="#ffffff" stroke="transparent" points="-4,4 -4,-123 114,-123 114,4 -4,4"/>
<!-- tollwerk/snippets -->
<g id="node1" class="node">
<title>tollwerk/snippets</title>
<path fill="#eeeeee" stroke="#000000" stroke-width="2" d="M98,-119C98,-119 12,-119 12,-119 6,-119 0,-113 0,-107 0,-107 0,-95 0,-95 0,-89 6,-83 12,-83 12,-83 98,-83 98,-83 104,-83 110,-89 110,-95 110,-95 110,-107 110,-107 110,-113 104,-119 98,-119"/>
<text text-anchor="middle" x="55" y="-97.3" font-family="Times,serif" font-size="14.00" fill="#314b5f">tollwerk/snippets</text>
</g>
<!-- php -->
<g id="node2" class="node">
<title>php</title>
<path fill="#eeeeee" stroke="#000000" d="M70,-36C70,-36 40,-36 40,-36 34,-36 28,-30 28,-24 28,-24 28,-12 28,-12 28,-6 34,0 40,0 40,0 70,0 70,0 76,0 82,-6 82,-12 82,-12 82,-24 82,-24 82,-30 76,-36 70,-36"/>
<text text-anchor="middle" x="55" y="-14.3" font-family="Times,serif" font-size="14.00" fill="#314b5f">php</text>
</g>
<!-- tollwerk/snippets&#45;&gt;php -->
<g id="edge1" class="edge">
<title>tollwerk/snippets&#45;&gt;php</title>
<path fill="none" stroke="#1a2833" d="M55,-82.9902C55,-72.2963 55,-58.4994 55,-46.3706"/>
<polygon fill="#1a2833" stroke="#1a2833" points="58.5001,-46.2612 55,-36.2612 51.5001,-46.2613 58.5001,-46.2612"/>
<text text-anchor="middle" x="67.5" y="-57" font-family="Times,serif" font-size="10.00" fill="#767676">&gt;=7.2</text>
</g>
</g>
</svg>
